<?xml version="1.0" ?><!DOCTYPE svg  PUBLIC '-//W3C//DTD SVG 1.1//EN'  'http://www.w3.org/Graphics/SVG/1.1/DTD/svg11.dtd'><svg height="63.979px" id="Layer_1" style="enable-background:new 0 0 64 63.979;" version="1.1" viewBox="0 0 64 63.979" width="64px" xml:space="preserve" xmlns="http://www.w3.org/2000/svg" xmlns:xlink="http://www.w3.org/1999/xlink"><g id="Shape_49_"><g><ellipse cx="32" cy="31.989" rx="32" ry="31.989" style="fill:#666666;"/></g></g><g id="Medium_Logo"><g><path d="M46.798,23.884h1.267v-3.899h-11.97l-3.979,15.08h-0.108l-3.941-15.08H16.061v3.899h1.229    c0.506,0,0.772-0.346,0.772,0.1v18c0,0.446-0.267,0.249-0.772,0.249h-1.229v3.75h8.002v-3.999h-2l1.23-16.726h0.108l5.533,20.725    h4.339l5.605-20.725h0.108l1.075,16.726h-2v3.999h10.002v-3.75h-1.267c-0.47,0-0.735,0.197-0.735-0.249v-16    C46.063,25.538,46.328,23.884,46.798,23.884z" style="fill:#FFFFFF;"/></g></g><g/><g/><g/><g/><g/><g/><g/><g/><g/><g/><g/><g/><g/><g/><g/></svg>